<svg xmlns="http://www.w3.org/2000/svg" viewBox="0 0 373.5 60"><defs><style>.a{fill:#daa228;}.b{fill:#174991;}.c{fill:#fff;}.d{fill:#d2d3d4;}.e{fill:#ec2227;}.f{fill:#6b7bb5;}.g{fill:none;}.h{fill:#faa520;}</style></defs><g transform="translate(647 10)"><path class="a" d="M-273.5,20a29.96,29.96,0,0,1-30,30,29.96,29.96,0,0,1-30-30,29.96,29.96,0,0,1,30-30,29.96,29.96,0,0,1,30,30"/><path class="b" d="M-274.5,20a29.021,29.021,0,0,1-29,29,29.021,29.021,0,0,1-29-29,29.021,29.021,0,0,1,29-29,29.021,29.021,0,0,1,29,29"/><path class="a" d="M-282.8,20a20.741,20.741,0,0,1-20.7,20.7A20.741,20.741,0,0,1-324.2,20,20.741,20.741,0,0,1-303.5-.7,20.742,20.742,0,0,1-282.8,20h0"/><path class="c" d="M-283.5,20a19.994,19.994,0,0,1-20,20,19.994,19.994,0,0,1-20-20,20.059,20.059,0,0,1,20-20h0a19.931,19.931,0,0,1,20,20"/><path class="a" d="M-320.7,37.3l.8.7.5-.6-1.6-1.5-.2.2-2.1,2.2.8.8.9-1,.7.7.5-.5-.7-.7.4-.3"/><path class="a" d="M-316.9,39.8a1.6,1.6,0,0,0-1.9-1.3,1.887,1.887,0,0,0-1.5,2.1,1.6,1.6,0,0,0,1.9,1.3,1.769,1.769,0,0,0,1.1-.7,2.016,2.016,0,0,0,.3-1.1.367.367,0,0,0,.1-.3m-2.2,1.2c-.4-.3-.1-.8.1-1.1s.6-.8,1-.5,0,.9-.1,1.1c-.2.2-.7.7-1,.5Z"/><path class="a" d="M-314.5,40.6a1.642,1.642,0,0,0-2.2.7v.1a1.691,1.691,0,0,0-.1,1.4,1.606,1.606,0,0,0,2,1,2.189,2.189,0,0,0,1-.9,1.617,1.617,0,0,0-.7-2.3c.1.1.1,0,0,0m-.9,2.5h-.3a.52.52,0,0,1-.2-.4,1.854,1.854,0,0,1,.2-.7c.2-.3.5-.8.9-.6a.215.215,0,0,1,.2.2,2.057,2.057,0,0,1-.8,1.5Z"/><path class="a" d="M-312.7,41.8l-.2.4a1.69,1.69,0,0,1,.5.2l-.8,2.4,1,.4s.7-2,.8-2.4l.5.2.3-.7-2.1-.7v.2"/><path class="a" d="M-308.4,42.8l-1.4-.3-.1.3-.6,3,1.4.3a1.412,1.412,0,0,0,.9-.1,1.012,1.012,0,0,0,.4-.7v-.2a.764.764,0,0,0-.2-.5.55.55,0,0,0,.3-.5v-.2a.82.82,0,0,0-.7-1.1m-.4,2.3c0,.1,0,.1-.1.2h-.4c0-.2.1-.4.1-.6h.1c.2,0,.3.1.3.4Zm-.1-1.6a.349.349,0,0,1,.2.1v.2c0,.1,0,.2-.3.2h-.1a2.565,2.565,0,0,1,.2-.5Z"/><path class="a" d="M-305.8,43.3l-1.5,3.1.9.1.3-.7h.5a4.076,4.076,0,0,1,.2.7l1.2.1-1.3-4-.3.7"/><path class="a" d="M-302.4,45.8l-.1-2.5h-1.1l.1,3.3,2.2-.1v-.8s-.8.1-1.1.1"/><path class="a" d="M-299.4,45.5c-.1-.4-.4-2.5-.4-2.5h-.3l-.8.1.5,3.3,2.2-.3-.1-.8a8.914,8.914,0,0,0-1.1.2"/><path class="a" d="M-293.1,43.2a.675.675,0,0,1-.4.6.3.3,0,0,1-.4,0,1.47,1.47,0,0,1-.5-.6,1.412,1.412,0,0,1-.1-.9c.1-.2.2-.3.4-.3.2-.1.4,0,.7.1l.2.1.4-.6-.2-.2a1.939,1.939,0,0,0-1.5-.2,2.189,2.189,0,0,0-1,.9,1.7,1.7,0,0,0,0,1.4,1.7,1.7,0,0,0,2.2,1,1.412,1.412,0,0,0,1-1.4v-.3l-.8-.1v.5"/><path class="a" d="M-290.6,42.3c-.2-.4-1.2-2.2-1.2-2.2l-.3.1-.7.4,1.6,2.9,1.9-1.1-.4-.7c.1.1-.6.5-.9.6"/><path class="a" d="M-288.4,37.9l-.2.2-.4.3,1.3,1.8a.349.349,0,0,1,.1.2c0,.1-.1.2-.2.3a.349.349,0,0,0-.2.1c-.1,0-.1-.1-.2-.1l-1.3-1.8-.9.6,1.3,1.8a1.794,1.794,0,0,0,.7.5,1.689,1.689,0,0,0,1-.3A1.129,1.129,0,0,0-287,40a.1.1,0,0,0-.1-.1l-1.3-2"/><path class="a" d="M-284.4,37.2a.908.908,0,0,0-.7-.3.864.864,0,0,0-.3-.6.967.967,0,0,0-1.4,0l-.1.1-1,1,2.3,2.4,1-1a1.234,1.234,0,0,0,.4-.8.725.725,0,0,0-.2-.8m-1.7-.1.1.1c0,.1,0,.1-.1.2l-.1.1-.3-.3c.2-.3.3-.2.4-.1Zm.5.8a.3.3,0,0,1,.4,0h0c.1,0,.1.1.1.2h0a.349.349,0,0,1-.1.2l-.1.1-.4-.4.1-.1Z"/><path class="c" d="M-320.7,37l.8.7.2-.2-1.2-1.2-.1.1-1.9,2,.5.5s.8-.9.9-1l.7.7.2-.2-.7-.7.6-.7"/><path class="c" d="M-317.7,38.9a1.232,1.232,0,0,0-1-.2,1.723,1.723,0,0,0-1.3,1.8,1.3,1.3,0,0,0,1.6,1.1,1.445,1.445,0,0,0,1-.7,1.613,1.613,0,0,0,.3-.9v-.2a1.8,1.8,0,0,0-.6-.9m-.3,1.7c-.2.3-.8.9-1.3.5s-.1-1.1.1-1.4.8-.9,1.3-.6c.6.5.1,1.2-.1,1.5Z"/><path class="c" d="M-314.6,40.8a1.318,1.318,0,0,0-1.9.7v.1a1.672,1.672,0,0,0-.1,1.2,1.505,1.505,0,0,0,1.8.9,1.419,1.419,0,0,0,.9-.8,1.648,1.648,0,0,0-.7-2.1h0m-1.2,2.5c-.6-.3-.3-1.1-.1-1.4s.6-1,1.2-.7c.1.1.3.2.3.3a1.828,1.828,0,0,1-.9,1.8Z"/><path class="c" d="M-312.5,41.9l-.1.2.5.2-.8,2.4.6.2s.8-2.3.8-2.4l.5.2.1-.3-1.6-.5h0"/><path class="c" d="M-308.5,43l-1.2-.3v.1l-.6,2.8,1.2.3a1.128,1.128,0,0,0,.8-.1.55.55,0,0,0,.3-.5v-.2a.713.713,0,0,0-.3-.6.752.752,0,0,0,.5-.7.849.849,0,0,0-.7-.8m-.4.3a.52.52,0,0,1,.4.2c0,.1.1.1.1.2v.1a.35.35,0,0,1-.5.3h-.1l-.3-.1c0-.1.2-.8.2-.9Zm-.1,1.2c.2,0,.4.3.4.5v.1c0,.1-.1.2-.2.3a.3.3,0,0,1-.4,0,.494.494,0,0,1-.3-.1l.2-1C-309.3,44.4-309,44.5-309,44.5Z"/><path class="c" d="M-305.6,43.4l-1.4,2.8h.4a4.875,4.875,0,0,0,.3-.7l.8.1.2.7.7.1-1-3.2v.2m-.2,1.1a2.353,2.353,0,0,1,.2.8h-.6Z"/><path class="c" d="M-302.6,46c0-.1-.1-2.5-.1-2.5h-.7l.1,2.9,1.8-.1v-.4s-1,.1-1.1.1"/><path class="c" d="M-299.6,45.7c0-.1-.4-2.5-.4-2.5h-.1l-.6.1.4,2.9,1.7-.3-.1-.4a4.12,4.12,0,0,1-.9.2"/><path class="c" d="M-292.9,43.2a.76.76,0,0,1-.6.8.638.638,0,0,1-.6,0,1.344,1.344,0,0,1-.6-.7,1.183,1.183,0,0,1-.1-1,.664.664,0,0,1,.5-.4,1.02,1.02,0,0,1,.9.2h.1l.2-.3h-.1a1.468,1.468,0,0,0-1.3-.1,1.085,1.085,0,0,0-.8.8,1.275,1.275,0,0,0,0,1.2,1.431,1.431,0,0,0,1.9.8,1.292,1.292,0,0,0,.9-1.2v-.1h-.4"/><path class="c" d="M-290.6,42.6c-.1-.1-1.2-2.2-1.2-2.2h-.1l-.5.3,1.4,2.5,1.5-.9-.2-.3a2.837,2.837,0,0,1-.9.6"/><path class="c" d="M-288.5,38.2h0l-.3.2,1.2,1.7a.367.367,0,0,1,.1.3c0,.2-.1.3-.3.4a.6.6,0,0,1-.4.1c-.1,0-.2-.1-.3-.2l-1.2-1.6-.5.4,1.2,1.6a.918.918,0,0,0,.6.4,1.613,1.613,0,0,0,.9-.3.962.962,0,0,0,.4-1.2v-.1l-1.4-1.7"/><path class="c" d="M-284.5,37.3a.778.778,0,0,0-.8-.2v-.2a.764.764,0,0,0-.2-.5.785.785,0,0,0-1.1,0v.1l-.9.8,2,2.1.9-.9a.908.908,0,0,0,.3-.7,1.688,1.688,0,0,0-.2-.5m-1.3,0c0,.1-.1.3-.2.3l-.2.2c-.1-.1-.5-.6-.6-.6l.1-.1c.3-.3.5-.3.7-.1.1,0,.1.1.2.3Zm.5,1.5-.7-.7.3-.3a.483.483,0,0,1,.7,0h0c.1.1.2.2.2.3h0a.758.758,0,0,1-.2.4l-.3.3Z"/><path class="a" d="M-316.8.2l-1.2.3.1.4a1.237,1.237,0,0,1-.4,1.4,1.136,1.136,0,0,1-.8.3,2.223,2.223,0,0,1-1.3-.8,2.628,2.628,0,0,1-.7-1.5,1.382,1.382,0,0,1,.5-.9,1.531,1.531,0,0,1,1.3-.2l.4.1.3-1.2L-319-2a2.827,2.827,0,0,0-2.5.6,3.023,3.023,0,0,0-.3,4.3l.1.1a3,3,0,0,0,4.2.3,2.667,2.667,0,0,0,.9-2.9l-.2-.2"/><path class="a" d="M-313.5-5.8l-1.2.6.9,2-1,.5-.9-2-1.6.8,2.5,5.3,1.6-.8s-.8-1.6-1-2.2l1-.5,1,2.2,1.6-.8L-313.1-6l-.4.2"/><path class="a" d="M-308-2.6a5.019,5.019,0,0,1-.2-1.2l1.8-.4-.2-1.2-1.8.4c-.1-.4-.1-.7-.2-1l2-.4-.2-1.2-.4.1-3.3.7,1.2,5.7,3.8-.8L-306-3l-2,.4"/><path class="a" d="M-302.7-7.7h-1.8v.4l-.1,5.4,3.8.1V-3.1h-2l.1-4.6"/><path class="a" d="M-296.8-4.7c-.5-.3-.6-.5-.6-.7s.2-.4.4-.3h0a.79.79,0,0,1,.5.6l.1.5,1.2-.4-.1-.4A2.263,2.263,0,0,0-297.9-7a.764.764,0,0,0-.5.2,1.779,1.779,0,0,0-.8,1.1,1.77,1.77,0,0,0,1,2.1c.5.4.7.5.6.9a.215.215,0,0,1-.2.2c-.1.1-.2.1-.4.1-.3-.1-.4-.2-.5-.6l-.1-.4-1.2.5.1.4a2.076,2.076,0,0,0,1.6,1.4,2,2,0,0,0,2.5-1.4h0a1.838,1.838,0,0,0-1-2.2"/><path class="a" d="M-292.5-1.6l1.7.8.5-1.1-1.7-.8.5-.9,1.8.9.5-1.1-3.4-1.7-.2.4-2.4,4.8,3.4,1.7.5-1.1-1.8-.9c.2-.3.4-.7.6-1"/><path class="a" d="M-285.8-1.1l-5.4,2.8,1,.9A13.013,13.013,0,0,1-289,2l.8.7c-.1.3-.4,1.3-.4,1.3l1.4,1.2,2.3-6.8-.9.5"/><path class="c" d="M-317,.6l-.6.2V.9a1.574,1.574,0,0,1-.5,1.7,1.209,1.209,0,0,1-1,.3,2.143,2.143,0,0,1-1.5-.9,2.06,2.06,0,0,1-.7-1.7,1.1,1.1,0,0,1,.6-1,1.6,1.6,0,0,1,1.5-.2h.1l.1-.6h-.1a2.47,2.47,0,0,0-2.2.5,2.7,2.7,0,0,0-.3,3.8l.1.1a2.8,2.8,0,0,0,3.8.3,2.329,2.329,0,0,0,.8-2.6h-.1"/><path class="c" d="M-313.4-5.6l-1,.5.9,2-1.6.7-.9-2-1.1.5,2.2,4.7,1.1-.5s-.9-1.9-1-2.2l1.6-.7,1,2.2,1.1-.5-2.2-4.7h-.1"/><path class="c" d="M-308.2-2.2a14.9,14.9,0,0,0-.4-1.8l1.8-.4-.1-.6-1.8.4c0-.2-.3-1.4-.3-1.6l2-.4-.1-.6-3.2.6,1,5.1,3.2-.6-.1-.6-2,.5"/><path class="c" d="M-303-7.4h-1.2v.1l-.1,5.1,3.2.1v-.7h-2c0-.3.1-4.6.1-4.6"/><path class="c" d="M-296.9-6a.849.849,0,0,1,.7.8V-5l.6-.2v-.1a1.721,1.721,0,0,0-1.3-1.3,1.7,1.7,0,0,0-1.4.2,1.5,1.5,0,0,0-.7.9,1.5,1.5,0,0,0,.9,1.8c.5.4.8.6.7,1.2,0,.2-.2.3-.3.4a.75.75,0,0,1-.5.1.849.849,0,0,1-.7-.8v-.1l-.7.3v.1a1.891,1.891,0,0,0,1.4,1.2,1.664,1.664,0,0,0,2.1-1.2h0c.3-1.1-.4-1.6-1-2-.5-.4-.8-.6-.7-1a.875.875,0,0,1,.9-.5h0"/><path class="c" d="M-291.6-4l1.8.9.3-.5-2.9-1.5-.1.1-2.3,4.5,2.9,1.5.3-.5-1.8-.9.8-1.6,1.7.8.3-.5-1.7-.8.7-1.5"/><path class="c" d="M-285.6-.8l-5.1,2.6.6.5,1.2-.6,1.1,1c-.1.2-.4,1.3-.4,1.3l1,.8,2-5.8-.4.2m-2.7,2.2,1.2-.6c-.1.4-.4,1-.5,1.3a1.576,1.576,0,0,0-.7-.7Z"/><path class="d" d="M-289.2,19.2a2.455,2.455,0,0,0-3.2-1.1,2.56,2.56,0,0,0-1.3,1c.9-2.5,4.5-3.1,4.5-5.4,0-4-5.6-2.9-4.8,0a1.09,1.09,0,0,1,1-1.1,1.09,1.09,0,0,1,1.1,1v.1c0,1.5-3.6,2.5-3.6,5.1,0,2.9,2.9,3.1,2.6,5.7a1.188,1.188,0,0,1-1.2,1c-4.4,0-2.8-5.4-4.3-7l.1-1.1a1.667,1.667,0,0,0,2.1-.9,1.561,1.561,0,0,0-.4-1.8c0,1-2,.9-2-.9,0-2.4,2.3-1.2,2.4-.6a6.694,6.694,0,0,1,0-2c-1.2.4-1.3-.3-1.2-.6a1.107,1.107,0,0,1,.9-.7.9.9,0,0,1,.5.1c.2.1.3-.1.2.1.1-.2.1,0,.2-.2a4.349,4.349,0,0,1,.6-.7V8.8l.4.1.3-.6c-.4-.8-.9-.4-1.2-1.3-.3-.1-5.1.4-5-1.5-.4,0-1.3.2-.7,1-.4.1-.8-.5-1.4.9.8-.2.4.8.4,1.1,0,1.7-2.3,1.7-2.3.9a1.28,1.28,0,0,0,.3,1.8c.1.1.2.1.3.2a5.291,5.291,0,0,1-1.1,2.1,6.72,6.72,0,0,1-4.2-1.3,3.6,3.6,0,0,0-1.2-.8V11a4.708,4.708,0,0,0,1.5-1.3,3,3,0,0,0,.6-1.8V7.3c0-.1,0-.1-.1-.2V7c0-.1-.1-.1-.1-.2V6.7a.1.1,0,0,0-.1-.1l-.1-.1-.1-.1-.1-.1-.1-.1-.2-.2h0l-.1-.1h0a.349.349,0,0,0-.2-.1h0a2.543,2.543,0,0,0-1.7-.4,2.526,2.526,0,0,0-2.5,2.7,2.671,2.671,0,0,0,2,2.5,1.909,1.909,0,0,1-.8.3h.2c.1,0,.1.1.2.1h.2v.3h0c-.5.1-.8.2-1,.7s0,.6.2.9c-.2.3-.7.5,0,1.3a.807.807,0,0,0,.4.9c.1,0,.2.1.4.1V21a1.387,1.387,0,0,0-.7.8s-.3-.8-.3.7c.4-.3.2.3.2.3-.5.7.1.6.1.6.5-.5.4.2.4.2a2.016,2.016,0,0,0,.3,1.1v4.4h-.4v1.2h.7a.961.961,0,0,0-.6.9,1.088,1.088,0,0,0,1.1.9.987.987,0,0,0,.9-1h0a.871.871,0,0,0-.6-.8h.6V29.1h-.4V25.2a.349.349,0,0,1,.2.1h.1a1.02,1.02,0,0,1,.2-.9l.6-.6a1.759,1.759,0,0,1,2.2.3,9.353,9.353,0,0,0,3.7-2.5l1,1.7c-2.1.7-6.7,4.7-3.5,6,0,.4-.1,3.4-2,3.1-2.7-.3-3.4.8-2.9,2.1a1.114,1.114,0,0,0,.6,1.4c-.1-.6.2-1.1,1.3-1.1,0,1.1.7,1.3.7,1.3a1.109,1.109,0,0,1,1.1-1.3h.2c0,.8.9,1.1.9,1.1a.945.945,0,0,1,.6-1.1h.2c2.7-.5.2-3.2,4.2-4,0,0-2-.3-2-1.4,0-1,1.8-1.7,2.5-1.7,1.3,2.5,2.7,2.5,3.1,2.5.6.6.4,2.8-.4,2.7-3-.2-2.9,1.7-2.6,2a1.606,1.606,0,0,0,.5,1.1c0-.8.7-1,1.7-.9,0,.9.5,1.1.5,1.1a1.088,1.088,0,0,1,.9-1.1h.3a.76.76,0,0,0,.6.8.773.773,0,0,1,.7-.8h.1c1.7,0-.8-3.6,2.5-7.1-2.8,1.3-4.4-2-4.4-2.6,1.5,1.7,6.2,2.1,6.2-.9,0-2.8-3.1-3.8-1.6-4.9a1.238,1.238,0,0,1,1.5,1.9c1.5.3,2.3-1,1.9-2.3m-18.2.1a16.654,16.654,0,0,1-2.8,1.8c-.1,0-.2.1-.4.1V15.7a8.469,8.469,0,0,1,1.7.4c.8.4.8,1.3-.2,1.5.6,1.2,2.8.6,3.3-.4.2,0,.4.4.6.8-.3.2-.9.5-2.2,1.3Zm12-9.1c-.1.2-.2.3-.3.5a1.362,1.362,0,0,0,1.9.5,1.513,1.513,0,0,0,.7-1.4V9.7a1.206,1.206,0,0,1-1.2.8,1.128,1.128,0,0,1-1.1-.3Z"/><path class="b" d="M-312.7,6.9h0m0,23Zm0-25.3Zm-.4,25.1h.7a.349.349,0,0,0-.2.1h.2a.645.645,0,0,1,.6.6.645.645,0,0,1-.6.6.675.675,0,0,1-.6-.4v.1a1.088,1.088,0,0,0,1.1.9.987.987,0,0,0,.9-1h0a.871.871,0,0,0-.6-.8h.6V28.6h-.4V24.7a.876.876,0,0,1-.5-1,.735.735,0,0,1,.6.2c-.2.5.3,1,.3,1a1.02,1.02,0,0,1,.2-.9l.6-.6a1.759,1.759,0,0,1,2.2.3,9.353,9.353,0,0,0,3.7-2.5l1,1.7c2.3,0,1.5-1.7,1.4-1.9a1.309,1.309,0,0,1,1.3,1.2h0c0,2.1-6.2,2.4-6.2,5a1.625,1.625,0,0,0,1.1,1.5c0,2.4-1.6,3.8-2.7,3.8-1.8,0-3.1-.4-3.1,1.6h.6c-.6.6,0,1.4,0,1.4-.1-.6.2-1.1,1.3-1.1h.7a1.049,1.049,0,0,0,0,1.3,1.109,1.109,0,0,1,1.1-1.3h.7c-.1.1.1.8.4,1.1a.945.945,0,0,1,.6-1.1h.2c2.7-.5.2-3.2,4.2-4,0,0-2-.3-2-1.4,0-1,1.8-1.7,2.4-1.7a3.3,3.3,0,0,1,1.4,0c.2,1.6,2,1.5,2.4,1.5,1.5,1.5-.4,4-.4,4-2.4,0-3.3.3-3.3,1.7h.4a.9.9,0,0,0,.1,1.1c0-.8.7-1,1.7-.9h.5a.909.909,0,0,0,.1,1.1,1.088,1.088,0,0,1,.9-1.1h.7c-.2.2,0,.6.2.9a.773.773,0,0,1,.7-.8h.1c1.7,0-.8-3.6,2.5-7.1-2.9,1.3-4.4-2-4.4-2.6,1.5,1.7,6.2,2.1,6.2-.9,0-2.4-2.2-3.5-2-4.4a1.5,1.5,0,0,1,1.5-1.3,1.514,1.514,0,0,1,1.3,1.5,1.4,1.4,0,0,1-.9,1.2h0a2.161,2.161,0,0,0,1.8-2.5,2.161,2.161,0,0,0-2.5-1.8,1.909,1.909,0,0,0-.8.3,2.56,2.56,0,0,0-1.3,1c.9-2.5,4.5-3.1,4.5-5.4,0-4-5.6-2.9-4.8,0v-.1c.1-1.6,3-1.9,3,.2,0,1.8-3.7,2.8-3.7,5.2,0,2.5,2.7,3.1,2.7,5.7a1.778,1.778,0,0,1-2,1.7,3.1,3.1,0,0,1-3.1-2.3h0c-.9-1.7-.6-4.4-1.6-5.5l.1-1.1a1.667,1.667,0,0,0,2.1-.9,1.534,1.534,0,0,0-.4-1.7c0,1-2,.9-2-.9,0-2.4,2.3-1.2,2.4-.6a6.694,6.694,0,0,1,0-2c-1.2.4-1.3-.3-1.2-.6.2-.3.4-.7.9-.7.7,0,.6.3.6.6a4.125,4.125,0,0,1,1-1.3V8l.4.1.3-.6c-.4-.8-.9-.4-1.2-1.3-.3-.1-4.4-.5-4.2-2.4-.4,0-1.3,1.2-.7,1.9h-.8a2.013,2.013,0,0,0-2.2,1.1c1.7-1.7,2.7,2.3-.3,2.3h0a.937.937,0,0,1-.9-.5c-.3,1.3,1.6,1.8,1.6,1.8a10.315,10.315,0,0,1-1.4,3c.3.3.4,2.2-1,2.2.5-1.4-1-2.6-2.5-3.4h0a2.994,2.994,0,0,1-.8-.4,8.651,8.651,0,0,0-1.7-.7V10a4.708,4.708,0,0,0,1.5-1.3,3,3,0,0,0,.6-1.8V6.3c0-.1,0-.1-.1-.2V6c0-.1-.1-.1-.1-.2V5.7a.1.1,0,0,0-.1-.1.1.1,0,0,0-.1-.1.1.1,0,0,0-.1-.1l-.1-.1-.1-.1-.2-.2h0l-.1-.1h0a.349.349,0,0,0-.2-.1h0a2.543,2.543,0,0,0-1.7-.4.6.6,0,0,0-.4.1A2.632,2.632,0,0,0-314,7.1a2.851,2.851,0,0,0,1.4,2.5h0a1.909,1.909,0,0,1-.8.3h.2c.1,0,.1.1.2.1h.8v.6a.864.864,0,0,1-.6-.3h0c-.5.1-.8.2-1,.7s0,.6.2.9c-.2.3-.7.5,0,1.3a.807.807,0,0,0,.4.9c.1,0,.2.1.4.1a.563.563,0,0,1,.6.7h0v5a1.7,1.7,0,0,1,.7.1V14.5a8.469,8.469,0,0,1,1.7.4h.2a.86.86,0,0,1,.8.8.86.86,0,0,1-.8.8.6.6,0,0,1-.4-.1c.6,1.2,2.8.6,3.3-.4.2,0,.4.4.6.8a5.845,5.845,0,0,0,1.9.2s-5.4,3.5-7,3.5c-.7,0-2.2,0-2.2.5-.4,0-1,.7-1,1.1a.908.908,0,0,1,.7-.3.749.749,0,0,1,.5.1,2.4,2.4,0,0,0-.7,1.2c.5-.5.7-.5.7-.5s.5-.1.6.1a1.689,1.689,0,0,0-.3,1s.3-.5.6-.5v5.2c0,.2-.7.3-1,.3m.4-14.7c-.1,0-.2-.2-.2-.2a.2.2,0,0,1,.2-.2,3.553,3.553,0,0,1,1,.2,4.4,4.4,0,0,1-1,.2Zm-.2-.9c-.2,0-.2-.3-.2-.3a.319.319,0,0,1,.3-.3,2.836,2.836,0,0,1,1.3.4,2.4,2.4,0,0,1-1.4.2Zm-.1-1.1a.4.4,0,0,1-.2-.4.446.446,0,0,1,.4-.3,3.293,3.293,0,0,1,1.3.7,1.95,1.95,0,0,1-1.5,0Zm1.4-3.1a.854.854,0,0,0,0-.7h0a1,1,0,0,1-1-1h0V6.9h0a1.146,1.146,0,0,1,1.3-.7.993.993,0,0,1,.7,1,2.062,2.062,0,0,1-1,1.7Z"/><path class="e" d="M-296.6,9.8a1.362,1.362,0,0,0,1.9.5A1.457,1.457,0,0,0-294,9V8.9a1.206,1.206,0,0,1-1.2.8,1.432,1.432,0,0,1-1.1-.3l-.3.4"/><path class="c" d="M-298.5,7.2h.5l-.2.3c0,.1-.3.2-.3-.3m-1.1,0h.7s0,.6.5.6l-.1.2s-1.4-.4-1.1-.8Z"/><path class="f" d="M-311.7,12.1a3.293,3.293,0,0,0-1.3-.7c-.2-.1-.3.2-.4.3,0,.1,0,.4.2.4a3.787,3.787,0,0,0,1.5,0m-.1.8a2.836,2.836,0,0,0-1.3-.4.319.319,0,0,0-.3.3c0,.1.1.3.2.3a2.2,2.2,0,0,0,1.4-.2Zm-1-2.6v.3l.6.3v-.6Zm-.1,3.2c-.1,0-.2.2-.2.2s.1.2.2.2a1.613,1.613,0,0,0,.9-.3c-.3,0-.6-.1-.9-.1Zm-.7,8.6a1.059,1.059,0,0,0-.1,1.3,1.855,1.855,0,0,1,.7-1.2C-313.2,22.2-313.4,22.1-313.6,22.1Zm1.7,1.5a.921.921,0,0,0,.7,1.1h.1s-.5-.5-.3-1a.75.75,0,0,0-.5-.1Zm-1-13.9a2.851,2.851,0,0,1-1.4-2.5,2.632,2.632,0,0,1,1.5-2.6,2.666,2.666,0,0,0-2.1,3,3.018,3.018,0,0,0,2,2.1Zm8.5-2.8a.921.921,0,0,1,1.1.7v.2a1.347,1.347,0,0,1-1.3,1.4h-.1c3,0,1.9-4,.3-2.3Zm-2.1,8.8c1.5,0,1.4-1.9,1-2.2a8.255,8.255,0,0,0,1.4-3s-1.9-.4-1.6-1.7h0a1.28,1.28,0,0,0,.3,1.8c.1.1.2.1.3.2a5.291,5.291,0,0,1-1.1,2.1,9.818,9.818,0,0,1-2.9-.5c1.6.6,3.2,1.8,2.6,3.3Zm-5.7-9.2c.4,0,.7.2.7.6a.669.669,0,0,1-.6.7h0c-.4,0-.7-.2-.7-.6a1,1,0,0,0,1,1h0a.854.854,0,0,1,0,.7,2.333,2.333,0,0,0,1-1.7,1,1,0,0,0-1-1,.993.993,0,0,0-1,.7.822.822,0,0,1,.6-.4Zm10.8-.7c-.7-.7.3-1.9.7-1.9-.4,0-2.1,1.1-1.5,1.9Zm-8.5,11a.8.8,0,0,0,1.1-.3.8.8,0,0,0-.3-1.1.6.6,0,0,0-.4-.1h-.2C-308.9,15.7-308.9,16.6-309.9,16.8Zm-1.5-5.6a12.2,12.2,0,0,1,1.7.7,1,1,0,0,1-.5-.4,3.6,3.6,0,0,0-1.2-.8v.5Zm.3,9.7c1.6,0,7-3.5,7-3.5a6.154,6.154,0,0,1-1.9-.2c-.3.2-.9.5-2.2,1.2a16.654,16.654,0,0,1-2.8,1.8c-.1,0-.2.1-.4.1s-.5-.1-.7-.1v-5c0-.4-.2-.7-.6-.7h0v5.8a1.387,1.387,0,0,0-.7.8s-.8-.1-.8,1.4c0-.4.6-1.1,1-1.1-.1-.6,1.4-.6,2.1-.5Zm13.5,8c-.4,0-2.2.1-2.4-1.5a3.3,3.3,0,0,0-1.4,0c1.3,2.5,2.7,2.5,3.1,2.5.6.6.4,2.8-.4,2.7-3-.2-2.9,1.7-2.6,2,0-1.4.9-1.7,3.3-1.7,0,0,1.9-2.5.4-4Zm.6,5.9h-.4a.961.961,0,0,0,.6.9c-.2-.3-.4-.7-.2-.9Zm-3.8.9a1.1,1.1,0,0,1-.1-1.1h-.4a1.433,1.433,0,0,0,.5,1.1Zm9-22.8c0-2.1-2.9-1.8-3-.2a.993.993,0,0,1,1.1-.9,1.088,1.088,0,0,1,.9,1.1c0,1.5-3.6,2.5-3.6,5.1,0,2.9,2.9,3.1,2.6,5.7a1.188,1.188,0,0,1-1.2,1,2.829,2.829,0,0,1-2.8-1.5,3.124,3.124,0,0,0,3.1,2.3c1.8,0,2-1.3,2-1.7,0-2.6-2.7-3.2-2.7-5.7-.1-2.5,3.6-3.5,3.6-5.2ZM-313.1,23a2.016,2.016,0,0,0,.3,1.1,1.69,1.69,0,0,1,.3-1C-312.6,22.9-313.1,23-313.1,23Zm20.9-4.5a1.493,1.493,0,0,0-1.4,1.3,1,1,0,0,1,.4-.5,1.238,1.238,0,0,1,1.5,1.9,1.4,1.4,0,0,0,.8-1.8A1.681,1.681,0,0,0-292.2,18.5Zm-6.5,16.3h-.5c0,.9.5,1.1.5,1.1A1.083,1.083,0,0,1-298.7,34.8Zm-13.8-5h-.2a1.234,1.234,0,0,0-.4.8.632.632,0,0,0,.8.4.632.632,0,0,0,.4-.8.675.675,0,0,0-.6-.4Zm3.5,4.6h-.7c0,1.1.7,1.3.7,1.3A.853.853,0,0,1-309,34.4Zm2.1-7.2c0-2.6,6.2-2.9,6.2-5a1.324,1.324,0,0,0-1.3-1.3h0c.2.2,1,1.9-1.4,1.9-2.1.7-6.7,4.7-3.5,6,0,.4-.1,3.4-2,3.1-2.7-.3-3.4.8-2.9,2.1,0-1.9,1.4-1.6,3.1-1.6,1.1,0,2.7-1.4,2.7-3.8a1.843,1.843,0,0,1-.9-1.4Zm-5.2,1.6V23.6c-.4,0-.6.5-.6.5v4.4h-.4v.6c.3,0,1-.2,1-.3Zm1,6.7s-.5-.9,0-1.4h-.6a1.345,1.345,0,0,0,.6,1.4Zm3.9-1.1h-.5c0,.8.9,1.1.9,1.1-.4-.4-.6-1-.4-1.1Z"/><line class="g" transform="translate(-282 14.1)"/><path class="c" d="M-324.5,25.7v-.2c-.1-.4-.1-1.1-.7-1.2h-.5v-.5c-.2-.5-.9-.5-1.3-.5h-.2c-.4-.1-1.1-.2-1.3.3a.6.6,0,0,0-.1.4.6.6,0,0,0-.4-.1c-.6,0-.8.7-.9,1.1v.1l-.1.1a1.367,1.367,0,0,0-.2,1.4.52.52,0,0,0,.4.2,1.38,1.38,0,0,0-.3.4c-.1.5.4.9.7,1.2l.1.1.1.1c.3.3.7.8,1.3.6.1-.1.3-.2.3-.3.1.1.2.3.3.4.5.3,1-.1,1.3-.3l.1-.1h.1c.3-.2,1-.5.9-1a.52.52,0,0,0-.2-.4.52.52,0,0,0,.4-.2,1.588,1.588,0,0,0,.2-1.6"/><path class="e" d="M-326.9,26.2c3.1,1.8,2.1-.2,2.1-.5-.1-.3-.1-2.5-2.1.5"/><path class="e" d="M-327.1,26.6c-.8,3.5.8,2,1.1,1.8.2-.1,2.4-.8-1.1-1.8"/><path class="e" d="M-327.6,26.6c-3.6.3-1.6,1.4-1.4,1.6s1.6,2,1.4-1.6"/><path class="e" d="M-327.7,26.1c-1.4-3.3-1.8-1.1-2-.8-.1.3-1.4,2.1,2,.8"/><path class="c" d="M-276.7,25.2h0l-.1-.2c-.1-.4-.3-1-.9-1.1-.2,0-.3,0-.4.1,0-.2,0-.3-.1-.4-.3-.5-1-.3-1.3-.3h-.2c-.4,0-1.1,0-1.3.5a.3.3,0,0,1,0,.4.3.3,0,0,1-.4,0v-.1c-.5.1-.6.8-.7,1.2v.2c-.1.4-.3,1,.1,1.4.1.1.3.1.4.2a.758.758,0,0,0-.2.4c0,.6.6.9.9,1h.1l.1.1c.3.2.9.6,1.3.3a.265.265,0,0,1,.3-.3.265.265,0,0,1,.3.3h0c.5.2,1-.3,1.3-.6l.1-.1.1-.1c.3-.2.9-.6.7-1.2a.536.536,0,0,0-.3-.4.52.52,0,0,0,.4-.2c.3-.1,0-.7-.2-1.1"/><path class="e" d="M-279.4,25.8c-2.7-2.4-.5-2.1-.2-2.1s2.4-.7.2,2.1"/><path class="e" d="M-279.8,26.2c-3.1,1.8-2.1-.2-2.1-.5s.1-2.5,2.1.5"/><path class="e" d="M-279.6,26.6c.8,3.5-.8,2-1.1,1.8-.2-.1-2.3-.8,1.1-1.8"/><path class="e" d="M-279.1,26.6c3.6.3,1.6,1.4,1.4,1.6s-1.6,2-1.4-1.6"/><path class="e" d="M-279,26.1c1.4-3.3,1.8-1.1,2-.8.1.3,1.4,2.1-2,.8"/><path class="c" d="M-278.3,26.2h0l.6-.5v-.1l-.7.1a1.02,1.02,0,0,0-.8-.5c-.1-.3-.2-.7-.2-.7h-.1a3.2,3.2,0,0,1-.1.7,2.186,2.186,0,0,0-.5.3c-.1.1-.1.2-.2.3h-.7v.1l.7.3v.1a1.012,1.012,0,0,0,.4.7c-.1.3-.2.7-.2.7h.1a4.676,4.676,0,0,0,.5-.6c.1,0,.3.1.4,0,.1,0,.3-.1.4-.1l.6.5h.1l-.4-.7a2.178,2.178,0,0,0,.1-.6"/><path class="e" d="M-279.4,25.7a.52.52,0,0,0-.4.2.44.44,0,0,0-.1.5.669.669,0,0,0,.7.6.669.669,0,0,0,.6-.7.683.683,0,0,0-.8-.6h0"/><path class="e" d="M-327.3,25.8c2.7-2.4.5-2.1.2-2.1s-2.4-.7-.2,2.1"/><path class="c" d="M-326.3,26.3l.7-.3v-.1h-.7c0-.1-.1-.2-.2-.3a.55.55,0,0,0-.5-.3l-.1-.7h-.1s-.1.3-.2.7a1.02,1.02,0,0,0-.8.5l-.7-.1v.1l.6.4v.1a1.884,1.884,0,0,0,.2.8l-.4.7h.1l.6-.5a.6.6,0,0,0,.4.1h.4l.5.6h.1l-.2-.7a1.929,1.929,0,0,0,.3-1h0"/><path class="e" d="M-326.9,25.9a.758.758,0,0,0-.4-.2.661.661,0,0,0-.7.6.661.661,0,0,0,.6.7.661.661,0,0,0,.7-.6.764.764,0,0,0-.2-.5"/><path class="c" d="M-326.9,10.9a2.729,2.729,0,0,0-3.2,2.2,2.729,2.729,0,0,0,2.2,3.2,2.729,2.729,0,0,0,3.2-2.2,2.729,2.729,0,0,0-2.2-3.2"/><path class="e" d="M-326.3,13l-.1-.1-.7-.5-.2-.1a2.186,2.186,0,0,1-.5-.3c-.1,0-.1-.1-.2-.1a2.353,2.353,0,0,0-.8-.2l-.6.6a15.089,15.089,0,0,1,2.8,1.5,3.386,3.386,0,0,1,.3-.8"/><path class="e" d="M-326.9,14.5c0-.1.2-.4.2-.5a15.089,15.089,0,0,0-2.8-1.5,1.421,1.421,0,0,0-.2.6,5.33,5.33,0,0,0,2.8,1.4"/><path class="e" d="M-327.1,12.2a1.81,1.81,0,0,1,1.6-.1l-.6-.6a2.318,2.318,0,0,0-1.6.3,2.092,2.092,0,0,0,.6.4"/><path class="e" d="M-329.2,14.8c.1,0,.1.1.2.1.2.1.3.2.5.2a.349.349,0,0,1,.2.1c.3.1.9.2.9.3l.3-.8a7.19,7.19,0,0,1-2.8-1.3v.8c.3.2.4.4.7.6"/><path class="e" d="M-327.3,15.7l-.2-.1a6.373,6.373,0,0,0-.7-.2,2.651,2.651,0,0,0,.5.6h.7l-.3-.3"/><path class="e" d="M-325,12.9c0-.2-.1-.3-.2-.5a1.81,1.81,0,0,0-1.6-.1l.8.5h.6c.1.1.2.1.4.1"/><path class="e" d="M-325.4,13.1a4.357,4.357,0,0,1-1.1,2.9,2.452,2.452,0,0,0,1.6-2.8,1.087,1.087,0,0,0-.5-.1"/><path class="e" d="M-327.8,11.8a1.746,1.746,0,0,1,1.2-.4c-.1,0-.2-.1-.3-.1a2.318,2.318,0,0,0-1.6.3c.2-.1.4,0,.7.2"/><path class="e" d="M-326.1,13.1l-.4.8c0,.1-.1.1-.1.2l-.2.4-.1.2-.3.8.3.3a5.025,5.025,0,0,0,1.2-2.8c-.1.1-.2.1-.4.1"/><path class="e" d="M-328.4,15.4c-.2-.1-.3-.1-.5-.2.1.2.1.3.2.5l.6.3c-.1-.2-.3-.4-.3-.6"/><path class="e" d="M-329.2,15.1c-.1-.1-.2-.1-.3-.2a2.181,2.181,0,0,0,.4.5c0-.1-.1-.2-.1-.3"/><path class="c" d="M-282.4,14.1a2.729,2.729,0,0,0,3.2,2.2,2.729,2.729,0,0,0,2.2-3.2,2.729,2.729,0,0,0-3.2-2.2,2.89,2.89,0,0,0-2.2,3.2"/><path class="e" d="M-280.7,13l.1-.1c.2-.2.7-.4.7-.5l.2-.1a2.186,2.186,0,0,0,.5-.3c.1,0,.1-.1.2-.1a2.353,2.353,0,0,1,.8-.2l.6.6a15.089,15.089,0,0,0-2.8,1.5,3.386,3.386,0,0,0-.3-.8"/><path class="e" d="M-280.1,14.5c0-.1-.2-.4-.2-.5a15.089,15.089,0,0,1,2.8-1.5,1.421,1.421,0,0,1,.2.6,5.33,5.33,0,0,1-2.8,1.4"/><path class="e" d="M-279.9,12.2a1.81,1.81,0,0,0-1.6-.1l.6-.6a1.971,1.971,0,0,1,1.5.3,1,1,0,0,1-.5.4"/><path class="e" d="M-277.8,14.8c-.1.1-.1.1-.2.1-.2.1-.3.2-.5.2a.349.349,0,0,0-.2.1c-.3.1-.9.2-.9.3,0,0-.2-.6-.3-.8a7.19,7.19,0,0,0,2.8-1.3v.8c-.3.2-.4.4-.7.6"/><path class="e" d="M-279.7,15.7l.2-.1a6.373,6.373,0,0,1,.7-.2,2.651,2.651,0,0,1-.5.6h-.7l.3-.3"/><path class="e" d="M-281.9,12.9c0-.2.1-.3.2-.5a1.81,1.81,0,0,1,1.6-.1l-.8.5h-.6a.756.756,0,0,1-.4.1"/><path class="e" d="M-281.6,13.1a4.357,4.357,0,0,0,1.1,2.9,2.4,2.4,0,0,1-1.6-1.9,2.719,2.719,0,0,1,0-.9,1.087,1.087,0,0,1,.5-.1"/><path class="e" d="M-279.2,11.8a1.746,1.746,0,0,0-1.2-.4c.1,0,.2-.1.3-.1a2.318,2.318,0,0,1,1.6.3c-.2-.1-.4,0-.7.2"/><path class="e" d="M-280.9,13.1l.4.8.1.2a1.466,1.466,0,0,0,.2.4l.1.2.3.8-.3.3a5.025,5.025,0,0,1-1.2-2.8c.1.1.2.1.4.1"/><path class="e" d="M-278.6,15.4c.2-.1.3-.1.5-.2-.1.2-.1.3-.2.5l-.6.3c.1-.2.3-.4.3-.6"/><path class="e" d="M-277.8,15.1c.1-.1.2-.1.3-.2a2.181,2.181,0,0,1-.4.5c0-.1.1-.2.1-.3"/></g><rect class="c" width="1" height="60" transform="translate(286.5)"/><path class="h" d="M130,55h9.2a63.545,63.545,0,0,1,14.7-33.6H134.6V13H164l2.7,7.4A55.01,55.01,0,0,0,147.6,55H170V5H130Z"/><path class="h" d="M175,55h9.2a63.545,63.545,0,0,1,14.7-33.6H179.6V13H209l2.7,7.4A55.01,55.01,0,0,0,192.6,55H215V5H175Z"/><path class="h" d="M220,5V55h9.2a63.545,63.545,0,0,1,14.7-33.6H224.6V13H254l2.7,7.4A55.01,55.01,0,0,0,237.6,55H260V5Z"/><path class="c" d="M125,15V5H85V45H55V5H45V15a25,25,0,1,0,5,15,23.592,23.592,0,0,0-1.5-8.4,24.508,24.508,0,0,1,2.6,11.1,24.781,24.781,0,0,1-6.2,16.5V55h40l3.5-10L87.2,55h34.1l3.5-10H95V35h25V25H95V15ZM25,44.9A14.9,14.9,0,1,1,39.9,30,14.937,14.937,0,0,1,25,44.9Z"/></svg>